<?xml version="1.0" encoding="UTF-8"?>
<svg id="_Слой_1" data-name="Слой 1" xmlns="http://www.w3.org/2000/svg" viewBox="0 0 266.49 244.96">
  <defs>
    <style>
      .cls-1 {
        fill: #7bca2f;
        opacity: .5;
      }

      .cls-1, .cls-2, .cls-3, .cls-4, .cls-5, .cls-6, .cls-7, .cls-8 {
        stroke-width: 0px;
      }

      .cls-2 {
        fill: #0d0b0a;
      }

      .cls-3 {
        fill: #111528;
      }x§

      .cls-4 {
        fill: #df9d47;
      }

      .cls-5 {
        fill: #dbd1c3;
      }

      .cls-6 {
        fill: #cdc2ae;
      }

      .cls-7 {
        fill: #c1b5a3;
      }

      .cls-8 {
        fill: #fafafa;
      }
    </style>
  </defs>
  <path class="cls-3" d="m1.85,166.5c-.19-6.98-.37-13.95-.59-20.93-.09-2.87,1.91-3.58,4.12-4.05,3.13-.67,3.2-2.16,1.44-4.5-1.9-2.52-3.53-5.24-5.38-7.8-2.43-3.37-1.81-5.79,1.98-7.52,8.78-4,17.53-8.06,26.31-12.06,1.69-.77,3.69-1.1,1.81-3.69-6.14-8.47-8.03-18.12-7.32-28.33.26-3.73-.57-6.71-3.03-9.54-2.62-3.01-4.66-6.48-6.36-10.11-2.27-4.85-1.05-7.72,4.23-8.71,4.23-.8,8.57-1.14,12.88-1.26,2.23-.06,3.63-.69,5.04-2.41,3.38-4.13,7.06-8.03,11.69-10.78,1.89-1.12,2.2-2.59,2.26-4.55.14-4.65.42-9.29.77-13.93.44-5.83,3.75-7.86,9.24-5.73,4.38,1.7,8.24,4.34,12.06,6.99,1.72,1.19,2.97,1.47,4.84.19C104.66-.66,134.14-3.46,165.08,3.48c41.56,9.32,71.74,40.81,79.05,82.18,1.61,9.12,1.03,18.28-.45,27.33-.48,2.96.29,4.12,2.79,5.29,5.87,2.75,11.56,5.88,17.4,8.69,2.72,1.31,3.3,2.99,1.86,5.56-1.14,2.03-2.15,4.14-3.3,6.16-1.41,2.48-3.17,4.88,1.46,5.95,1.67.38,1.39,2.03,1.38,3.35-.07,7.16-.13,14.31-.2,21.47-3.05,2.31-6.29,4.27-9.69,6.02-17.05,8.77-33.63,18.42-50.67,27.23-9.2,4.75-18.08,10.54-27.16,15.57-10.39,5.76-20.97,11.34-31.52,16.89-4.79,2.52-9.23,2.14-13.09-.4-12.81-8.4-27.15-13.77-40.52-21.07-20.71-11.3-42.04-21.43-62.99-32.3-9.27-4.81-18.93-8.92-27.56-14.91Zm152.1-7.09c-.28-.05-.5.04-.67.26-.5-.37-.91-.22-1.28.22-3.31-.65-6.61-.43-9.9.2-.31-.21-.59-.18-.86.09-1.2-.56-2.3-.17-3.39.33-4.08-1.72-8.46-2.91-11.39-6.64-.11-.14-.87.22-1.32.34-4.7-.66-9.18,1.2-13.83,1.13-5.25.15-10.45.76-15.6,1.74-5.38.58-10.75,1.17-16.13,1.75-3.34-.6-6.7-.97-10.1-.67h-6.26c.77,2.83,2.91,3.25,4.72,3.85,11.21,3.72,21.14,10.26,32.67,13.6,9,2.6,17.52,7.45,26.25,11.32,4.81,2.14,7.39,1.24,8.58-3.82-.1-1.95,1.46-2.76,2.61-3.9,1.01-1,1.68-2.18-.25-3.03l-.23.16c.62,2.16,1.92,1.59,2.66.35,3.58-5.99,9.06-10.21,13.76-15.15,0,0-.09-.14-.1-.15.73.51,1.08-.17,1.54-.5.88-.26,2.3-.85,1.84-1.53-.71-1.04-2.18-.63-3.29.05Zm97.59-19.2c.59-.24,1.17-.48,1.04-1.29l-.04-.37c5.47-5.25,5.4-6.31-.63-8.9-3.44-2.02-7.17-4.94-10.83-4.42-3.03.44-1.43,5.95-3.18,8.03-3.62,4.27-.43,4.87,2.35,6.06,1.36.58,2.78,1.03,4.17,1.53,2.5.71,5.38,5.24,7.21-.72l-.11.08Zm-164.97,40.38c1.33.74,2.65,1.48,3.98,2.22,5.67,2.63,11.37,5.21,17.01,7.91,10.27,4.93,20.85,9.28,30.08,16.15v14.55c.58,0,1.15-.02,1.73-.03v-13.56c11.89-6.59,23.73-13.28,35.68-19.75,21.82-11.82,43.72-23.49,65.56-35.29,1.2-.65,3.22-.96,2.96-2.87-.2-1.51-1.88-1.62-3.13-1.97-.76-1.44-2.37-.73-3.46-1.34q-6.82-3.82-11.5,2.53c-1.79.62-3.12,1.82-4.23,3.31-13.16,9.64-28.57,12.39-44.21,14.46-2.26.3-5.07-.39-5.74,2.99-2.66,2.57-5.44,4.93-7.64,8.04-3.96,5.59-7.72,11.37-12.71,16.19-3.27,3.15-7.03,4.49-11.6,4.31-4.99-.19-9.18-2.72-13.76-4.09-.41-.05-.82-.11-1.22-.16-.85-.68-1.74-1.24-2.89-1.17-.69-1.11-1.77-1.25-2.93-1.18-.03-.28-.18-.39-.45-.34-1.1-.74-2.18-1.53-3.63-1.33-1-.37-1.99-.73-2.99-1.1-1.1-1.13-2.47-1.68-4.03-1.81-5.57-2.33-10.84-5.45-16.9-6.5-1.31-.83-2.61-1.66-3.92-2.48-2.86-1.78-5.83-3.35-9.1-4.26-.45-.21-.91-.43-1.36-.64-2.85-1.33-5.7-2.66-8.55-3.99-5.98-3.21-11.97-6.41-17.95-9.62-.51-3.42,1.01-5.34,4.37-5.82,1.78-.26,3.59-.63,5.37-.59,2.88.07,3.54-1.39,3.39-3.9-.25-4.12-3.12-4.45-6.23-4.52-2.95-1.47-6.89-2.19-8.67-4.55-5.38-7.15-10.52-4.5-16.18-.91-2.22,1.41-4.88,2.14-7.07,3.59-1.33.88-3.41,1.7-3.38,3.59.03,1.97,2.3,2.07,3.66,2.84,1.13.64,2.42,1.01,3.64,1.49,6.67,4.29,13.85,7.6,20.99,10.99,5.63,3.69,11.6,6.7,17.84,9.19.01.5.01,1,.05,1.5.2,2.79-1.71,6.79,2,7.82,3.7,1.03,2.98-3.99,5.06-5.59.94.29,1.88.57,2.82.86,3.08,1.61,6.17,3.22,9.25,4.84Zm145.82-58.05c1.2-.92.88-2.29,1.05-3.52,1.92-5.47,2.46-11.17,3.12-16.9.84-7.27-2.07-14.01-2.31-21.09,0-1.93.17-3.92-1.77-5.2.04-.3-.01-.58-.16-.84.15-1.11.65-2.29-.59-3.13-.12-.62-.24-1.23-.36-1.85-.03-1.31-.53-2.39-1.62-3.17,0-.78.08-1.58-.87-1.93-.36-2.48-1.02-4.79-3.35-6.21.11-.82.1-1.59-.88-1.91-4.49-10.01-11.88-17.63-20.19-24.5-1.63-2.91-5.17-3.23-7.33-5.43-4.67-3.92-9.77-7.06-15.67-8.77-.41-.08-.83-.16-1.24-.25-11.95-6.89-24.98-9.38-38.6-9.5-10.2-.49-20.3-.02-30.15,3.01-9.69,1.86-18.39,6.12-26.67,11.29-1.02.64-3.8,1.16-1.34,3.41-1.55,2.58-1.01,8.01-6.72,4.92l-1.13-1.21.15.07c-1.9-3.4-4.99-5.64-8-7.87-2.42-1.8-5.03-5.26-7.93-3.83-2.23,1.1-.62,5.17-1.06,7.87-.68,4.07,1.07,4.59,4.69,4.02,3.42-.54,6.91-.02,6.24,5.04-7.47,1.89-14.53,4.65-20.59,9.56-3.08,1.86-5.51,4.42-7.67,7.26-3.74,3.16-3.68,8.16-5.85,12.12-6.41,11.7-5.92,23.48.76,35.01,1.29,2.25,2.2,4.67,4.14,6.58,6.14,6.07,13.69,8.36,22.01,8,10.57-.46,19.61,1.35,23.03,13.36,3.92-3.56,4.11-8.04,5.25-12.13.51-1.82,1.54-3.68,3.67-3.35,2.28.36,2.3,2.46,2.12,4.37-.58,6.08-2.33,11.87-6.17,16.59-3.3,4.06-6.92,7.84-13.29,7.13-4.64-.52-7.13,2.85-6.59,7.39.04.66.07,1.33.11,1.99.06,1.41,1.29,1.37,2.14,1.53,12.66,2.35,24.3.06,34.73-7.7,8.06-5.99,12.42-14.32,15.1-23.73,4.57-1.31,5.46-.38,5.56,5.84-3.17,5.96-4.61,12.86-9.75,17.74-.65.61-.97,1.85-.01,1.99,2.54.36,6.49,1.29,7.36-.85,2.81-6.95,9.07-7.6,14.74-9.63,7.37-2.64,13.9-6.35,17.07-14.11,3.43-3.95,3.79-9.08,5.25-13.78.62-1.98,1.32-4.24,3.79-3.74,2.23.45,2.75,2.62,2.46,4.82-1.17,9.09-3.91,17.36-10.7,24.08-5.45,5.4-12,8.08-19.21,9.85-3.4.83-7.31,1.69-5.93,6.86,1.05,3.48,3.59,4.51,6.92,4.09,3.94-.49,7.89-.93,11.79-1.67,1.96-.37,4.5.15,5.52-2.47,4.12-5.84,9.8-8.48,16.9-8.79,17.35-.76,32.52-6.11,43.08-20.97,1.38-1.94,3.42-2.45,5.29-.26l1.71,3c-3.6.82-5.85,2.56-4.62,6.71-3.9.87-5.33,4.06-6.77,7.23-4.94.23-7.44,4.47-11.12,6.77-.58.22-1.15.43-1.73.65-4.46-.31-7.97,3.36-12.46,2.97-6.12.1-12.31.08-18.22,1.75-3.56,1.01-5.28,3.8-3.98,7.73.05,1.95,1.28,3.38,2.9,3.61,7.49,1.03,15,1.67,22.17-1.72,4.53-.36,8.8-1.47,12.56-4.17,1.74.47,2.99-.11,3.74-1.75,3.88-2.14,8.48-3.1,11.37-6.88,3.9-1.44,5.52-5.08,7.79-8.1,2.64-2.16,2.64-5.67,4.28-8.33,2.05-1.02.43-3.34,1.65-4.66.17-.07.3-.18.4-.34Zm-163.79,11.7c1.95-.34,3.91-.61,5.84-1.04,3.42-.76,5.51-2.39,3.69-6.27-1.89-5.34-6.07-6.68-11.14-6.23-5.48.48-10.93.61-16.37-.39-1.36-.38-2.71-.77-4.07-1.15-.67-.67-1.56-1.57-2.38-1.09-1.09.64-.66,1.92-.33,2.97,1.8,9.36,7.76,15.37,16.88,16.94,2.93.51,5.56.09,7.07-2.93.27-.27.54-.55.82-.82Zm77.37,80.65c-.42,1.72-.45,3.43.08,5.13-.37,1.91-.65,3.82.25,6.24,5.57-3.05,10.97-6.01,16.36-8.97,17.91-9.84,35.88-19.59,53.71-29.56,12.4-6.93,25.27-12.99,37.24-20.7.79.02,1.55,0,1.83-.96,5.37-1.38,2.57-5.76,2.88-8.7.55-5.24-.46-5.75-5.08-3.03-20.11,11.83-41.14,21.96-61.55,33.24-1.33.73-3.37.86-3.39,3.1-.86.07-1.9-.13-1.85,1.27-2.69,2.07-6.51,1.36-9.1,3.68-9.8,5.27-19.6,10.54-29.4,15.8-1.4.75-2.53,1.62-1.99,3.47Zm-14.8,9.53c0-3.79-.2-7.07.06-10.3.22-2.73-.77-4.22-3.19-5.41-16.1-7.94-32.15-15.97-48.2-24.02-1.78-.89-3.18-1.09-5,.26-6.06,4.48-11.45,2.44-13.43-4.95-.51-1.9-.64-3.78-2.71-5-15.5-9.1-32.29-15.66-47.89-24.56-.78-.44-1.82-1.07-2.6.11-1.63,2.43.95,12.26,3.61,13.65,9.32,4.87,18.63,9.78,28.01,14.55,14.22,7.23,28.48,14.4,42.76,21.53,16,7.99,31.68,16.63,48.59,24.15ZM34.05,115.52c-5.66,2.41-11.14,4.63-16.53,7.06-9.39,4.24-9.31,4.25-3.7,12.88,1.51,2.33,2.71,2.75,5.59,1.81,4.35-1.42,7.72-4.57,12.11-5.78,4.39-1.21,6.93-3.34,3.48-8.17-1.48-2.08-.51-4.81-.95-7.8Zm107.97,77.26c2.38-.18,3.81-1.86,5.24-3.46,5.69-6.37,9.84-13.97,16.09-19.9.72-.69,2.15-1.61,1.09-2.83-.77-.88-2.14-.72-3.29-.3-2.49.91-4.96,1.86-6.97,3.67-5.32,4.8-9.34,10.71-13.62,16.37-2.55,3.38-1.51,6.4,1.46,6.45ZM21.09,55.47c1.84,2.63,3.37,4.81,5.33,7.62,1.68-3.06,3.04-5.52,4.62-8.39-3.6-.47-6.39.21-9.95.78Z"/>
  <path class="cls-1" d="m1.85,166.5c8.63,5.99,18.29,10.1,27.56,14.91,20.94,10.87,42.28,21,62.99,32.3,13.37,7.3,27.71,12.66,40.52,21.07,3.87,2.54,8.31,2.92,13.09.4,10.55-5.55,21.13-11.13,31.52-16.89,9.08-5.03,17.96-10.82,27.16-15.57,17.04-8.81,33.62-18.46,50.67-27.23,3.41-1.75,6.65-3.71,9.69-6.02,1.9,5.67-.94,12.25-7.86,16.53-9.46,5.86-19.05,11.52-28.78,16.91-21.22,11.75-42.75,22.98-63.81,35.01-15.49,8.85-30.65,9.47-46.47,1.34-33.71-17.32-67.51-34.47-101.28-51.69-5.79-2.95-10.25-7.27-13.43-12.95-1.43-2.56-2.3-5.16-1.58-8.1Z"/>
  <path class="cls-8" d="m70.54,146.96c-.54-4.54,1.96-7.91,6.59-7.39,6.38.71,10-3.07,13.29-7.13,3.84-4.72,5.59-10.5,6.17-16.59.18-1.91.16-4.01-2.12-4.37-2.14-.34-3.17,1.52-3.67,3.35-1.14,4.1-1.33,8.57-5.25,12.13-3.42-12.01-12.46-13.82-23.03-13.36-8.31.36-15.86-1.94-22.01-8-1.94-1.92-2.85-4.34-4.14-6.58,5.47-.29,10.12-2.18,13.28-6.92,1.99-.66,2.37-1.87,1.21-3.59l.19-.17c4.07-.26,2.76-3.03,2.48-5.32.69-3.04.74-5.81-3-6.93.84-7.9-1.7-14.63-7.03-20.41-1-1.08-2.17-2.1-2.05-3.79,2.16-2.84,4.59-5.4,7.67-7.26,4.25,6.03,9.57,10.83,16.18,14.18.28.14.25.9.36,1.38-2.08,4.04.35,5.5,3.7,5.92,3.42.44,6.41-1.02,9.06-3.16,4.74-.3,7.91-3.1,11.28-6.19,10.62-9.75,7.54-25.61-6.23-30.7-2.47-2.25.32-2.77,1.34-3.41,8.28-5.17,16.98-9.43,26.67-11.29-.19,1.72.28,3.32,1.15,4.76,5.25,8.73,7.44,18.42,8.56,28.34.56,4.96,2.73,8.19,7.42,9.33,3.98.96,7.89-1.97,10.13-7.21,1.98-4.62,2.91-9.47,2.87-14.53-.06-7.9,0-15.8.02-23.7,13.62.12,26.65,2.61,38.6,9.5-1.72.4-1.6,1.82-1.84,3.13-.84,4.56-1.67,9.13-2.67,13.66-1.29,5.86-3.83,11.29-5.9,16.89-1.54,4.18-3.35,8.64.95,12.44,3.45,3.06,7.52,2.61,13.35-.74,2.87-1.65,4.6-4.33,6.63-6.62,6.28-7.07,12.03-14.59,13.72-24.32,8.31,6.86,15.71,14.48,20.19,24.5-.82,1.03-1.63,2.09-2.48,3.1-5.66,6.77-12.66,12.14-19.09,18.1-3.41,3.16-5.16,7.1-3.16,11.64,2.01,4.54,5.81,6.4,10.81,6.51,4.95.1,9.37-2.06,14.14-2.63-.49,12.14-5.95,21.53-15.99,28.17-9.92,6.57-20.83,10.63-32.65,12.4-7.07,1.06-14.1,2.58-18.92,8.71-7.88,2.46-15.88,4.37-24.09,5.33-1.38-5.17,2.53-6.03,5.93-6.86,7.22-1.77,13.76-4.45,19.21-9.85,6.78-6.72,9.52-14.99,10.7-24.08.28-2.19-.23-4.36-2.46-4.82-2.47-.5-3.18,1.76-3.79,3.74-1.46,4.7-1.82,9.83-5.25,13.78-2.4.18-4.24,1.74-6.37,2.6-7.46,2.99-15.02,4.94-23.03,2.27-.1-6.21-.99-7.15-5.56-5.84-2.72-.57-3.24,1.63-4.19,3.31-3.95,7.01-9.04,12.79-16.12,16.99-3.68,2.19-7.8,3.55-11.2,6.19-.49.07-.98.14-1.46.21-5.71.43-11.37,1.54-17.13,1.2-.66,0-1.32,0-1.99,0Zm5.98-73.76c.08-1.52.15-3.43-1.51-3.78-1.78-.38-2.2,1.52-2.79,2.92-.62,1.48-1.14,3.31-3.42,2.82-1.86-.39-2.05-1.7-2.12-3.38-.11-2.86-2.09-3.16-4.25-2.31-2.64,1.04-4.35,3.08-4.87,5.89-.28,1.49-1.03,3.48,2.18,2.59,2.55-.7,2.85,1.2,2,2.99-.77,1.63-1.95,3.07-3.06,4.51-.58.75-1.65,1.2-.71,2.41.82,1.05,1.99,1.61,3.02.94,1.32-.85,3.02-.96,4.03-2.55,1.57-2.48,3.42-4.31,6.63-5.46,2.27-.82,5.16-3.83,4.88-7.59Z"/>
  <path class="cls-8" d="m131.18,224.41c-16.9-7.52-32.59-16.16-48.59-24.15-14.28-7.13-28.53-14.29-42.76-21.53-9.38-4.77-18.68-9.68-28.01-14.55-2.66-1.39-5.24-11.22-3.61-13.65.79-1.17,1.83-.55,2.6-.11,15.6,8.9,32.39,15.46,47.89,24.56,2.07,1.22,2.2,3.1,2.71,5,1.99,7.38,7.37,9.43,13.43,4.95,1.82-1.35,3.22-1.15,5-.26,16.05,8.04,32.1,16.08,48.2,24.02,2.42,1.19,3.41,2.68,3.19,5.41-.26,3.24-.06,6.51-.06,10.3Z"/>
  <path class="cls-7" d="m141.64,8.35c-.01,7.9-.08,15.8-.02,23.7.04,5.06-.9,9.91-2.87,14.53-2.24,5.24-6.15,8.17-10.13,7.21-4.69-1.13-6.86-4.36-7.42-9.33-1.12-9.92-3.31-19.62-8.56-28.34-.87-1.44-1.34-3.04-1.15-4.76,9.85-3.02,19.95-3.5,30.15-3.01Z"/>
  <path class="cls-7" d="m204.47,32.3c-1.69,9.73-7.44,17.25-13.72,24.32-2.03,2.28-3.75,4.97-6.63,6.62-5.83,3.35-9.9,3.79-13.35.74-4.29-3.8-2.49-8.26-.95-12.44,2.07-5.6,4.61-11.03,5.9-16.89,1-4.53,1.83-9.1,2.67-13.66.24-1.3.12-2.73,1.84-3.13.41.08.83.16,1.24.25,3.97,5.16,9.78,7.05,15.67,8.77,2.16,2.19,5.7,2.52,7.33,5.43Z"/>
  <path class="cls-7" d="m83.48,26.06c13.77,5.08,16.85,20.95,6.23,30.7-3.37,3.1-6.54,5.9-11.28,6.19.98-2.26,2.2-4.46,2.86-6.81.57-2.04.84-4.46-2.02-5.32-2.75-.83-3.76.72-4.49,3.16-1.31,4.41-3.93,7.28-9.11,6.21-.11-.47-.08-1.24-.36-1.38-6.61-3.35-11.93-8.15-16.18-14.18,6.06-4.91,13.13-7.67,20.59-9.56,1.05-.17,2.88.1,2.32-1.57-1.38-4.16,1.81-3.16,3.74-3.65,0,0-.15-.07-.15-.07.38.4.75.8,1.13,1.21,5.7,3.09,5.16-2.34,6.72-4.92Z"/>
  <path class="cls-8" d="m137.64,206.86c-9.22-6.87-19.81-11.22-30.08-16.15-5.64-2.71-11.34-5.28-17.01-7.91,0-.69,0-1.38-.01-2.06,6.06,1.06,11.33,4.17,16.9,6.5.82,1.77,1.89,2.98,4.03,1.81,1,.37,1.99.73,2.99,1.1.56,2.23,2.03,1.97,3.63,1.33.28-.05.43.06.45.34.2,2.31,1.15,2.76,2.93,1.18,1.15-.08,2.05.48,2.89,1.17-1.04,1.4.11,1.57,1.04,1.87,3.36,1.33,6.74,2.61,10.06,4.02,2.92,1.23,5.79,1.12,8.73.12,10.54-3.57,19.34-9.23,24.09-19.84,1.64-3.66,4.03-5.93,8.36-6.9,3.86-.86,7.76-1.63,11.63-2.45,7.43-1.56,15.02-2.65,21.58-6.91.95-.03,1.91-.02,2.61-.82l1-1.28v.03c.37.02.74.05,1.12.07.62-.32,1.25-.64,1.87-.96,3.63-.8,7.08-1.94,9.44-5.09.83-.34,1.66-.68,2.49-1.02,3.01-1.69,6.02-3.37,9.02-5.06,1.48.04,2.38-.77,3-2.01,1.26.35,2.93.47,3.13,1.97.26,1.91-1.77,2.23-2.96,2.87-21.83,11.8-43.73,23.47-65.56,35.29-11.95,6.47-23.79,13.16-35.68,19.75-.58-.32-1.15-.64-1.73-.96Z"/>
  <path class="cls-7" d="m224.89,93.51c-4.76.57-9.19,2.73-14.14,2.63-5-.1-8.8-1.97-10.81-6.51-2.01-4.54-.26-8.48,3.16-11.64,6.43-5.96,13.43-11.33,19.09-18.1.85-1.01,1.65-2.07,2.48-3.1.98.32.99,1.09.88,1.91-.07,2.71.29,5.18,3.35,6.21.95.35.87,1.16.87,1.93-2.42,2.56.02,2.65,1.62,3.17.12.62.24,1.23.36,1.85-2.13,1.48-.63,2.28.59,3.13.15.26.21.54.16.84.16,1.79-.78,3.79,1.07,5.23.57,5.41-.42,9.8-6.84,10.88-.68.11-1.22,1.03-1.83,1.58Z"/>
  <path class="cls-6" d="m255.45,166.05c-.28.95-1.04.98-1.83.96-2.73-.34-5.15.25-7.56,1.73-3.48,2.13-7.23,3.83-10.83,5.79-9.51,5.16-19.01,10.33-28.49,15.55-5.63,3.1-10.89,7.17-16.86,9.25-7.83,2.74-13.98,8.02-21.11,11.74-6.83,3.56-13.12,8.41-21.23,8.89-.01-1.69-.02-3.37-.03-5.06.64-.33,1.28-.66,1.91-.99,2.73-1.27,6.27-.92,8.05-4.06.38-.93,1.05-1.57,1.99-1.93.83-.02,1.58-.2,2.02-1,3.71-3.02,8.07-4.9,12.2-7.19,1.58-.87,3.86-1.52,3.69-4.12,2.59-2.32,6.41-1.61,9.1-3.68.69,0,1.38-.01,2.08-.02,1.65.07,2.47-1.44,3.79-2,.38-.33.75-.66,1.13-.99.6-.03,1.21-.06,1.81-.09,3.75,2.38,3.99-.21,4.16-2.93h0c1.59-.14,3.69.69,4.01-2h-.01c2.54-.97,6.63.75,7.04-3.99,1.16-.67,2.36-1.2,3.75-1.04,1.39.08,2.16-.53,2.21-1.96v.02c.31-.31.63-.62.95-.93,1.08-.12,2.24,0,3.02-1.02.83-.08,1.61-.24,2.03-1.08,11.24-5.87,22.9-10.97,33.39-19.15-.01,4.27,1.18,7.81-.38,11.29Z"/>
  <path class="cls-5" d="m224.89,93.51c.61-.54,1.15-1.46,1.83-1.58,6.42-1.07,7.41-5.46,6.84-10.88.23,0,.47-.01.7-.03.25,7.08,3.15,13.82,2.31,21.09-.66,5.72-1.2,11.43-3.12,16.9-2.44.55-2.29,1.87-1.05,3.52-.09.16-.23.27-.4.34-3.43-.95-5.42-4.65-9.25-4.81-1.87-2.19-3.91-1.68-5.29.26-10.56,14.86-25.73,20.21-43.08,20.97-7.1.31-12.78,2.95-16.9,8.79-.68-1.75,1.81-3.58-.14-5.29,4.82-6.12,11.85-7.65,18.92-8.71,11.82-1.77,22.73-5.83,32.65-12.4,10.04-6.65,15.5-16.03,15.99-28.17Z"/>
  <path class="cls-8" d="m79.58,158.82c5.38-.58,10.75-1.17,16.13-1.75-1.52,3.21-1.03,6.07,1.66,8.39,2.66,2.31,5.9,2.13,8.87,1.14,5.56-1.85,5.89-6.39,5.08-11.28,4.65.06,9.14-1.8,13.83-1.13-1.34,1.67-2.96,3.23-.96,5.56,2.8,3.27,10.08,3.72,13.67.74,1.09-.5,2.2-.89,3.4-.33.74,3.99,3.33,5.02,7.42,2.96,1.67-.84,2.98-2.88,5.29-1.59-4.7,4.95-10.18,9.17-13.76,15.15-.74,1.24-2.04,1.81-2.66-.34,3.13-2.28,2.25-5.35,1.66-8.36.89-.14,2.39-.22,1.6-1.44-.79-1.23-2.25-.71-3.26.34-1.48-.02-2.97.01-4.45-.08-4.73-.3-6.42,2.54-6.86,6.62-.53,5.02,3.42,3.05,5.74,3.61.48.12.95.27,1.42.41.67,1.67,1.4,1.75,2.21.1.72-.45,1.44-.9,2.16-1.35,1.94.85,1.27,2.03.25,3.03-1.15,1.14-2.7,1.94-2.6,3.89-3.68-2.65-7.71-3.91-12.29-3.28-1.77.24-2.79-1.13-3.43-2.46-3.87-8.01-5.09-8.71-13.56-6.82-3.95.88-8.11.92-10.94-1.77-4.68-4.46-10.39-6.11-16.23-7.8.2-.72.4-1.44.6-2.16Zm39.14,7.09c1.41-.3,2.9-.78,2.93-2.59.02-1.24-1.09-1.51-2.14-1.34-1.44.24-3.16.47-3.32,2.27-.13,1.48,1.23,1.65,2.53,1.66Z"/>
  <path class="cls-7" d="m49.65,92.1c-3.16,4.74-7.81,6.62-13.28,6.92-6.69-11.53-7.17-23.3-.76-35.01,2.17-3.96,2.11-8.96,5.85-12.12-.12,1.7,1.05,2.71,2.05,3.79,5.33,5.78,7.86,12.51,7.03,20.41-2.17.97-3.38,2.49-2.93,5,.4,2.23-.98,3.07-2.7,4.04-1.62.91-5.21.51-4.28,3.49.87,2.77,3.92,1.45,6.11,1.31.96-.06,1.9-.46,2.84-.71.03.96.05,1.92.08,2.88Z"/>
  <path class="cls-4" d="m78.98,160.98c5.84,1.69,11.54,3.34,16.23,7.8,2.83,2.69,6.99,2.65,10.94,1.77,8.47-1.9,9.69-1.19,13.56,6.82.64,1.32,1.66,2.7,3.43,2.46,4.58-.63,8.61.63,12.29,3.28-1.18,5.05-3.76,5.95-8.58,3.82-8.72-3.87-17.25-8.72-26.25-11.32-11.53-3.34-21.46-9.88-32.67-13.6-1.81-.6-3.95-1.02-4.72-3.85,2.18,0,4.22,0,6.27,0,1.88,5.28,6.31,1.99,9.51,2.84Z"/>
  <path class="cls-7" d="m34.05,115.52c.44,2.99-.54,5.72.95,7.8,3.44,4.83.91,6.96-3.48,8.17-4.39,1.21-7.76,4.36-12.11,5.78-2.88.94-4.07.52-5.59-1.81-5.6-8.63-5.69-8.64,3.7-12.88,5.39-2.43,10.87-4.65,16.53-7.06Z"/>
  <path class="cls-5" d="m147.54,219.96c8.12-.48,14.4-5.33,21.23-8.89,7.13-3.72,13.28-9,21.11-11.74,5.97-2.09,11.23-6.15,16.86-9.25,9.48-5.22,18.98-10.39,28.49-15.55,3.6-1.95,7.34-3.65,10.83-5.79,2.41-1.48,4.83-2.07,7.56-1.73-11.96,7.71-24.84,13.77-37.24,20.7-17.84,9.98-35.8,19.72-53.71,29.56-5.4,2.96-10.8,5.92-16.36,8.97-.9-2.41-.62-4.32-.25-6.24.49-.02.98-.04,1.47-.05Z"/>
  <path class="cls-4" d="m203.18,152.59c-3.75,2.7-8.02,3.82-12.55,4.18-.44-1.03-.88-2.07-1.32-3.11-.52-1.14-1.03-2.28-1.55-3.42h.01c.86-1.62-.09-3.23,0-4.84,4.48.39,7.99-3.29,12.46-2.97.56.87.47,2.31,1.93,2.42.67.05,1.17-.27,1.29-1.05.19-1.21-.5-1.71-1.49-2.02,3.68-2.3,6.18-6.54,11.12-6.78-.77,4.45,3.77,5.81,5.22,8.97-2.89,3.78-7.49,4.74-11.37,6.88-.8-1.36-1.61-2.72-2.41-4.08-1.63-1.63-1.97-.58-2.07.99-2.33,2,.28,3.26.73,4.84Z"/>
  <path class="cls-5" d="m128.18,124.89c8.02,2.67,15.57.72,23.03-2.27,2.13-.85,3.97-2.42,6.37-2.6-3.16,7.76-9.7,11.46-17.07,14.11-5.67,2.03-11.92,2.68-14.74,9.63-.87,2.15-4.82,1.21-7.36.85-.96-.14-.63-1.37.01-1.99,5.14-4.88,6.58-11.78,9.75-17.74Z"/>
  <path class="cls-6" d="m209.88,164.08c-6.57,4.26-14.15,5.34-21.58,6.91-3.88.82-7.77,1.58-11.63,2.45-4.33.97-6.72,3.24-8.36,6.9-4.75,10.6-13.55,16.26-24.09,19.84-2.94,1-5.81,1.11-8.73-.12-3.33-1.4-6.71-2.68-10.06-4.02.06-.57.12-1.14.18-1.7,4.58,1.37,8.76,3.9,13.76,4.09,4.57.18,8.33-1.16,11.6-4.31,4.99-4.81,8.75-10.6,12.71-16.19,2.2-3.11,4.98-5.47,7.64-8.04,7.1,1.53,13.95-.73,20.92-1.32,6.15-.52,11.47-4.17,17.65-4.48Z"/>
  <path class="cls-8" d="m56.56,144.93c3.11.07,5.98.4,6.23,4.52.15,2.52-.51,3.97-3.39,3.9-1.79-.04-3.59.33-5.37.59-3.37.49-4.88,2.4-4.37,5.82-.04.74-.08,1.48-.11,2.21-7.14-3.39-14.32-6.7-20.99-10.99,7.45-5.3,15.37-7.02,24.01-3.09,1.7,1.27,4.11.97,5.68,2.64.55.58,1.62.49,2.11-.35.65-1.12-.03-1.78-1.04-2.22-2.13-.93-4.41-1.1-6.69-1.25,1.03-1.22,3.06-.22,3.94-1.79Z"/>
  <path class="cls-5" d="m209.88,164.08c-6.18.31-11.5,3.96-17.65,4.48-6.97.59-13.82,2.85-20.92,1.32.67-3.38,3.48-2.69,5.74-2.99,15.64-2.07,31.05-4.82,44.21-14.46,3.5,1.58,4.55.75,4.23-3.31q4.67-6.34,11.5-2.53c1.09.61,2.69-.1,3.46,1.34-.62,1.24-1.52,2.06-3,2.01-.15-1.04-.76-2.36-1.72-1.77-2.87,1.74-7,2.31-7.3,6.83-.83.34-1.66.68-2.49,1.02-3.88.35-7.59,1-9.44,5.09-.62.32-1.25.64-1.87.96-.34-.57-.69-1.01-1.12-.07,0,0,0-.03,0-.03-.33.43-.67.85-1,1.28-.71.8-1.67.79-2.61.82Zm22.85-17.65c-.28-.15-.55-.4-.81-.39-.26,0-.51.28-.77.43.26.15.53.41.79.4.26,0,.51-.28.79-.44Z"/>
  <path class="cls-6" d="m91.12,145.55c3.4-2.64,7.52-4.01,11.2-6.19,7.08-4.21,12.17-9.98,16.12-16.99.95-1.69,1.47-3.88,4.19-3.31-2.68,9.41-7.04,17.74-15.1,23.73-10.43,7.75-22.07,10.05-34.73,7.7-.86-.16-2.08-.12-2.14-1.53,1.31-.01,1.83-.78,1.88-1.99,5.76.34,11.42-.77,17.12-1.2.09.69-.15,1.78.95,1.62,1.06-.15.63-1.13.51-1.83Z"/>
  <path class="cls-6" d="m52.56,147.89c-8.64-3.93-16.56-2.21-24.01,3.09-1.22-.49-2.51-.85-3.64-1.49-1.36-.77-3.63-.87-3.66-2.84-.03-1.88,2.05-2.7,3.38-3.59,2.19-1.45,4.85-2.18,7.07-3.59,5.66-3.6,10.8-6.24,16.18.91,1.77,2.36,5.72,3.08,8.67,4.55-.88,1.56-2.91.56-3.94,1.79-.02.39-.04.79-.06,1.18Z"/>
  <path class="cls-8" d="m50.63,120.3c5.44,1,10.89.87,16.37.39,5.07-.44,9.25.89,11.14,6.23-2.58-.36-4.32.96-5.75,2.88-1.32.28-2.9-.28-3.86,1.18-.09.17-.11.36-.07.55-6.35,3.19-11.68.59-16.84-2.97-.55-.55-1.11-1.1-1.66-1.66-.48-1.02-.9-2.12-2.36-1.99l.02.03c.04-.65.08-1.31.13-1.96,1.82.03,3.2-.43,2.89-2.69Z"/>
  <path class="cls-4" d="m142.01,192.77c-2.96-.04-4.01-3.06-1.45-6.44,4.27-5.65,8.29-11.57,13.62-16.37,2.01-1.81,4.48-2.76,6.97-3.67,1.15-.42,2.52-.58,3.29.3,1.07,1.22-.36,2.15-1.09,2.83-6.25,5.93-10.4,13.53-16.09,19.9-1.43,1.6-2.86,3.27-5.24,3.45Z"/>
  <path class="cls-5" d="m255.45,166.05c1.55-3.47.37-7.02.38-11.29-10.48,8.18-22.14,13.29-33.39,19.15-.84.06-1.6.26-2.03,1.08-.78,1.01-1.94.9-3.02,1.02-.32.31-.65.62-.97.93,0,0,.01-.02.01-.02-1.24.08-1.95.77-2.21,1.96-1.39-.15-2.59.38-3.75,1.04-2.17,1.64-5.41,1.41-7.04,4,0,0,.01-.01.01-.01-1.58.19-2.97.74-4.01,2.01,0,0,0-.01,0-.01-1.9.24-2.8,1.91-4.16,2.93-.6.03-1.21.06-1.81.09-.38.33-.75.66-1.13.99-1.32.56-2.14,2.06-3.79,2-.08-.42-.15-.83-.22-1.25.01-2.24,2.06-2.37,3.39-3.1,20.41-11.28,41.43-21.41,61.55-33.24,4.62-2.72,5.62-2.21,5.08,3.03-.31,2.94,2.49,7.32-2.88,8.7Z"/>
  <path class="cls-7" d="m244.44,140.85c-1.39-.51-2.81-.96-4.17-1.53-2.79-1.18-5.97-1.78-2.35-6.06,1.76-2.07.15-7.59,3.18-8.03,3.66-.53,7.39,2.4,10.83,4.42,1.64,2.86,1.28,5.87.63,8.9,0,0,.04.37.04.37-.35.43-.7.86-1.04,1.29,0,0,.11-.08.11-.08-2.31,1.17-5.2-3.37-7.21.72Z"/>
  <path class="cls-8" d="m187.76,145.4c-.09,1.61.86,3.22,0,4.84-6.37.71-12.74,1.42-19.11,2.13,2.83.56,5.66.8,8.43.5,3.64-.4,7.61.26,10.66-2.63.52,1.14,1.03,2.28,1.55,3.42-7.85,1.75-15.79,1.52-23.74,1.22-1.3-3.93.42-6.72,3.98-7.73,5.91-1.67,12.1-1.65,18.22-1.75Z"/>
  <path class="cls-4" d="m111.31,155.33c.81,4.89.49,9.42-5.08,11.28-2.98.99-6.21,1.16-8.87-1.14-2.69-2.33-3.18-5.19-1.66-8.39,5.16-.99,10.36-1.59,15.61-1.74Z"/>
  <path class="cls-5" d="m75.78,29.84c-1.93.49-5.12-.51-3.74,3.65.56,1.68-1.28,1.41-2.32,1.57.67-5.06-2.81-5.58-6.24-5.04-3.63.57-5.37.05-4.69-4.02.45-2.7-1.16-6.77,1.06-7.87,2.89-1.43,5.5,2.03,7.93,3.83,3.01,2.24,6.1,4.48,8,7.87Z"/>
  <path class="cls-6" d="m157.33,142.79c1.95,1.71-.54,3.54.14,5.29-1.03,2.61-3.56,2.1-5.52,2.47-3.89.74-7.85,1.18-11.79,1.67-3.33.42-5.87-.61-6.92-4.09,8.21-.97,16.21-2.87,24.09-5.33Z"/>
  <path class="cls-5" d="m218.29,143.97c-1.45-3.16-5.99-4.52-5.22-8.97,1.45-3.17,2.87-6.36,6.77-7.23,2.08,2.7,4.16,5.4,6.24,8.09-2.26,3.02-3.88,6.66-7.79,8.1Z"/>
  <path class="cls-4" d="m133.41,177.43c-.47-.14-.94-.29-1.42-.41-2.32-.57-6.27,1.41-5.74-3.61.43-4.08,2.13-6.92,6.86-6.62,1.48.09,2.96.06,4.45.08.3.74.84,1.14,1.66,1.11.59,3.01,1.46,6.08-1.66,8.36,0,0,.23-.16.22-.16-.72.45-1.44.9-2.16,1.35-.74-.03-1.47-.06-2.21-.09Z"/>
  <path class="cls-4" d="m226.08,135.87c-2.08-2.7-4.16-5.4-6.24-8.09-1.23-4.15,1.02-5.89,4.62-6.71,2.87,1.33,4.84,3.49,5.9,6.47-1.64,2.67-1.64,6.18-4.28,8.33Z"/>
  <path class="cls-6" d="m165.55,154.88c7.95.3,15.9.53,23.74-1.22.44,1.04.88,2.07,1.32,3.11-7.16,3.39-14.68,2.75-22.16,1.72-1.63-.22-2.85-1.66-2.9-3.61Z"/>
  <path class="cls-5" d="m49.95,126.9c.55.55,1.11,1.1,1.66,1.66-.16,2.38,1.48,3.4,3.18,4.56,4.06,2.76,8.64,1.52,13,1.94-1.51,3.01-4.14,3.43-7.07,2.93-9.13-1.58-15.08-7.59-16.88-16.94,1.7.52,3.02.48,2.71-1.88,1.36.38,2.71.77,4.07,1.15.31,2.27-1.07,2.72-2.89,2.69-1.19.58-1.24,1.23-.12,1.96,0,0-.02-.03-.02-.03.04,1.55.92,2.1,2.36,1.99Z"/>
  <path class="cls-5" d="m149.42,213.91c-.64.33-1.28.66-1.91.99-.51,0-1.01-.01-1.52-.02-.54-1.85.59-2.71,1.99-3.47,9.81-5.26,19.6-10.53,29.4-15.8.17,2.6-2.11,3.25-3.69,4.12-4.14,2.28-8.5,4.17-12.2,7.19-.67.33-1.35.67-2.02,1-.94.36-1.6,1-1.99,1.93-3.2.33-5.97,1.51-8.05,4.06Z"/>
  <path class="cls-4" d="m137.85,160.49c-3.59,2.98-10.87,2.53-13.67-.74-2-2.33-.38-3.89.96-5.56.45-.13,1.21-.49,1.32-.34,2.93,3.73,7.31,4.92,11.39,6.64Z"/>
  <path class="cls-8" d="m74.5,174.89c-2.08,1.6-1.36,6.63-5.06,5.59-3.71-1.04-1.8-5.04-2-7.82-.04-.5-.03-1-.05-1.5.07-.6.15-1.19.22-1.79,2.85,1.33,5.7,2.66,8.55,3.99-.55.51-1.1,1.02-1.66,1.53Z"/>
  <path class="cls-7" d="m21.09,55.47c3.56-.56,6.35-1.25,9.95-.78-1.58,2.87-2.94,5.34-4.62,8.39-1.96-2.8-3.49-4.99-5.33-7.62Z"/>
  <path class="cls-5" d="m68.45,131.53c-.04-.19-.02-.37.07-.55,1.33-.25,3.46,2.09,3.86-1.18,1.44-1.92,3.18-3.24,5.75-2.88,1.82,3.88-.27,5.51-3.69,6.27-1.93.43-3.89.7-5.84,1.04-.05-.9-.11-1.8-.16-2.7Z"/>
  <path class="cls-5" d="m67.61,169.37c-.07.6-.15,1.19-.22,1.79-6.24-2.49-12.22-5.5-17.85-9.19.04-.74.08-1.48.11-2.21,5.98,3.21,11.97,6.41,17.95,9.62Z"/>
  <path class="cls-6" d="m68.45,131.53c.05.9.11,1.8.16,2.7-.27.27-.54.55-.82.82-4.36-.42-8.94.83-13-1.94-1.7-1.16-3.34-2.17-3.18-4.56,5.16,3.56,10.49,6.16,16.84,2.97Z"/>
  <path class="cls-6" d="m197.14,26.87c-5.9-1.72-11.7-3.61-15.67-8.77,5.9,1.71,11,4.85,15.67,8.77Z"/>
  <path class="cls-8" d="m230.36,127.53c-1.06-2.98-3.03-5.14-5.9-6.47-.57-1-1.14-2-1.71-3,3.83.16,5.82,3.86,9.25,4.81-1.21,1.32.41,3.64-1.65,4.66Z"/>
  <path class="cls-7" d="m153.96,161.53c-2.31-1.29-3.62.75-5.29,1.59-4.1,2.06-6.68,1.04-7.42-2.96.26-.27.54-.3.86-.09,3.36,2.66,6.62.91,9.9-.2.36-.44.78-.58,1.28-.22.2.58.4,1.15.59,1.73l.09.14Z"/>
  <path class="cls-7" d="m137.64,206.86c.57.32,1.15.64,1.73.96,0,4.52,0,9.04,0,13.56-.58,0-1.15.02-1.73.03v-14.55Z"/>
  <path class="cls-7" d="m78.98,160.98c-3.2-.84-7.63,2.45-9.51-2.84,3.4-.3,6.76.08,10.1.67-.2.72-.4,1.44-.6,2.16Z"/>
  <path class="cls-7" d="m77.53,174c3.27.91,6.24,2.47,9.1,4.26-.02.78-.03,1.55-.05,2.33-3.08-1.61-6.17-3.22-9.25-4.84.07-.58.13-1.16.2-1.75Z"/>
  <path class="cls-6" d="m252.56,138.55c.65-3.03,1-6.03-.63-8.9,6.03,2.59,6.1,3.65.63,8.9Z"/>
  <path class="cls-5" d="m204.51,146.77c.8,1.36,1.61,2.72,2.41,4.08-.75,1.64-2,2.21-3.74,1.74-.45-1.58-3.07-2.84-.74-4.84.97.26,1.72.05,2.07-.99Z"/>
  <path class="cls-6" d="m244.44,140.85c2.02-4.09,4.9.45,7.21-.72-1.83,5.96-4.71,1.44-7.21.72Z"/>
  <path class="cls-4" d="m152.01,159.88c-3.28,1.11-6.54,2.86-9.9.2,3.29-.63,6.58-.85,9.9-.2Z"/>
  <path class="cls-7" d="m225.48,149.12c.32,4.06-.73,4.89-4.23,3.31,1.11-1.49,2.44-2.69,4.23-3.31Z"/>
  <path class="cls-6" d="m228.89,64.9c-3.05-1.02-3.41-3.5-3.35-6.21,2.33,1.41,2.99,3.73,3.35,6.21Z"/>
  <path class="cls-7" d="m145.98,214.88c.51,0,1.01.02,1.52.02.01,1.69.02,3.37.03,5.06-.49.02-.98.04-1.47.05-.53-1.7-.5-3.41-.08-5.13Z"/>
  <path class="cls-8" d="m201.95,141.78c.99.31,1.68.81,1.49,2.02-.12.78-.62,1.11-1.29,1.05-1.46-.12-1.36-1.55-1.93-2.42.57-.21,1.15-.43,1.73-.65Z"/>
  <path class="cls-6" d="m46.56,119.15c.3,2.37-1.01,2.41-2.71,1.88-.33-1.06-.76-2.34.33-2.97.82-.48,1.71.41,2.38,1.09Z"/>
  <path class="cls-5" d="m86.58,180.58c.02-.78.03-1.55.05-2.33,1.31.83,2.61,1.66,3.92,2.48,0,.69,0,1.37.01,2.06-1.33-.74-2.65-1.48-3.98-2.22Z"/>
  <path class="cls-5" d="m111.48,189.05c-2.14,1.17-3.21-.04-4.03-1.81,1.55.13,2.92.68,4.03,1.81Z"/>
  <path class="cls-6" d="m234.26,81.02c-.23.02-.47.03-.7.03-1.84-1.44-.91-3.45-1.07-5.23,1.94,1.28,1.76,3.27,1.77,5.2Z"/>
  <path class="cls-6" d="m231.38,70c-1.6-.52-4.04-.6-1.62-3.17,1.09.78,1.58,1.85,1.62,3.17Z"/>
  <path class="cls-5" d="m121.48,193c-1.77,1.58-2.72,1.13-2.93-1.18,1.16-.07,2.24.08,2.93,1.18Z"/>
  <path class="cls-8" d="m232.4,122.53c-1.24-1.65-1.38-2.97,1.05-3.52-.17,1.23.15,2.6-1.05,3.52Z"/>
  <path class="cls-6" d="m232.33,74.99c-1.22-.85-2.72-1.65-.59-3.13,1.25.85.75,2.02.59,3.13Z"/>
  <path class="cls-5" d="m118.1,191.47c-1.61.64-3.07.9-3.63-1.33,1.45-.21,2.53.59,3.63,1.33Z"/>
  <path class="cls-5" d="m72.53,146.96c-.05,1.21-.56,1.97-1.88,1.99-.04-.66-.07-1.33-.11-1.99.66,0,1.32,0,1.99,0Z"/>
  <path class="cls-7" d="m153.95,159.4c1.11-.68,2.58-1.09,3.29-.05.46.67-.96,1.27-1.84,1.53-.48-.49-.96-.98-1.45-1.48Z"/>
  <path class="cls-5" d="m77.53,174c-.07.58-.13,1.16-.2,1.75-.94-.28-1.88-.57-2.82-.86.55-.51,1.1-1.02,1.66-1.53.45.21.91.43,1.36.64Z"/>
  <path class="cls-8" d="m153.95,159.4c.48.49.96.98,1.45,1.48-.46.33-.8,1.01-1.53.5-.19-.57-.39-1.15-.59-1.72.17-.22.4-.31.67-.26Z"/>
  <path class="cls-7" d="m188.32,190.66c.07.42.15.83.22,1.25-.69,0-1.38.01-2.08.02-.05-1.4.99-1.2,1.85-1.27Z"/>
  <path class="cls-5" d="m125.6,194.32c-.06.57-.12,1.14-.18,1.7-.93-.29-2.09-.47-1.04-1.87.41.05.82.11,1.22.16Z"/>
  <path class="cls-5" d="m76.76,30.98c-.38-.4-.75-.8-1.13-1.21.38.4.75.8,1.13,1.21Z"/>
  <path class="cls-6" d="m251.55,140.21c.35-.43.7-.86,1.04-1.29.12.81-.45,1.06-1.04,1.29Z"/>
  <path class="cls-2" d="m76.53,73.2c.28,3.76-2.61,6.78-4.88,7.6-3.2,1.16-5.06,2.98-6.63,5.46-1.01,1.59-2.7,1.7-4.03,2.55-1.03.66-2.2.11-3.02-.94-.94-1.2.13-1.65.71-2.41,1.11-1.44,2.29-2.89,3.06-4.51.85-1.79.54-3.7-2-2.99-3.21.89-2.46-1.1-2.18-2.59.52-2.81,2.23-4.85,4.87-5.89,2.16-.85,4.13-.55,4.25,2.31.07,1.68.26,2.98,2.12,3.38,2.29.49,2.8-1.34,3.42-2.82.59-1.4,1.01-3.29,2.79-2.92,1.66.35,1.59,2.26,1.51,3.78Z"/>
  <path class="cls-2" d="m65.67,60.19c5.18,1.08,7.79-1.8,9.11-6.21.73-2.44,1.74-3.99,4.49-3.16,2.87.86,2.59,3.28,2.02,5.32-.66,2.35-1.88,4.55-2.86,6.81-2.64,2.14-5.63,3.6-9.06,3.16-3.35-.43-5.78-1.89-3.7-5.92Z"/>
  <path class="cls-2" d="m49.57,89.21c-.95.25-1.88.64-2.84.71-2.18.14-5.24,1.46-6.11-1.31-.93-2.98,2.66-2.58,4.28-3.49,1.73-.97,3.11-1.81,2.7-4.04-.45-2.51.76-4.03,2.93-5,3.74,1.12,3.69,3.89,3,6.93-.83,1.77-1.65,3.54-2.48,5.32,0,0-.19.17-.19.17-.43.24-.86.47-1.29.71Z"/>
  <path class="cls-5" d="m51.05,88.33c.83-1.77,1.65-3.54,2.48-5.32.29,2.29,1.59,5.05-2.48,5.32Z"/>
  <path class="cls-5" d="m49.57,89.21c.43-.24.86-.47,1.29-.71,1.16,1.72.78,2.93-1.21,3.59-.03-.96-.05-1.92-.08-2.88Z"/>
  <path class="cls-5" d="m91.12,145.55c.12.71.54,1.68-.51,1.83-1.11.16-.86-.93-.95-1.62.49-.07.98-.14,1.47-.21Z"/>
  <path class="cls-6" d="m228.41,155c.31-4.52,4.43-5.08,7.3-6.83.97-.59,1.57.74,1.72,1.77-3.01,1.69-6.02,3.37-9.02,5.06Z"/>
  <path class="cls-6" d="m216.48,161.12c1.85-4.09,5.57-4.74,9.44-5.09-2.36,3.16-5.81,4.29-9.44,5.09Z"/>
  <path class="cls-6" d="m212.49,163.26c.33-.43.67-.85,1-1.28-.33.43-.67.85-1,1.28Z"/>
  <path class="cls-6" d="m213.48,162.01c.43-.94.78-.5,1.12.07-.37-.02-.75-.05-1.12-.07Z"/>
  <path class="cls-7" d="m149.42,213.91c2.08-2.54,4.85-3.73,8.05-4.06-1.78,3.14-5.33,2.79-8.05,4.06Z"/>
  <path class="cls-7" d="m203.43,183.92c1.63-2.6,4.87-2.36,7.04-4-.41,4.73-4.5,3.02-7.04,4Z"/>
  <path class="cls-7" d="m195.28,188.83c1.36-1.01,2.26-2.68,4.16-2.93-.16,2.71-.41,5.31-4.16,2.93Z"/>
  <path class="cls-7" d="m199.43,185.92c1.04-1.27,2.43-1.82,4.01-2.01-.32,2.69-2.41,1.86-4.01,2.01Z"/>
  <path class="cls-7" d="m214.23,178.88c.26-1.19.97-1.88,2.21-1.96-.05,1.43-.82,2.04-2.21,1.96Z"/>
  <path class="cls-7" d="m220.41,174.99c.43-.82,1.2-1.02,2.03-1.08-.43.83-1.21,1-2.03,1.08Z"/>
  <path class="cls-7" d="m159.46,207.92c.67-.33,1.35-.67,2.02-1-.44.8-1.19.98-2.02,1Z"/>
  <path class="cls-7" d="m216.42,176.94c.32-.31.65-.62.97-.93-.32.31-.65.62-.97.93Z"/>
  <path class="cls-7" d="m192.34,189.92c.38-.33.75-.66,1.13-.99-.38.33-.75.66-1.13.99Z"/>
  <path class="cls-4" d="m118.72,165.91c-1.3,0-2.67-.18-2.53-1.66.16-1.8,1.88-2.03,3.32-2.27,1.05-.17,2.16.1,2.14,1.34-.04,1.81-1.52,2.29-2.93,2.59Z"/>
  <path class="cls-5" d="m139.21,167.98c-.82.03-1.36-.36-1.66-1.11,1.01-1.05,2.47-1.56,3.26-.34.79,1.22-.71,1.31-1.6,1.44Z"/>
  <path class="cls-5" d="m133.41,177.43c.74.03,1.47.06,2.21.09-.81,1.65-1.54,1.58-2.21-.09Z"/>
  <path class="cls-5" d="m187.75,150.24c-3.05,2.88-7.02,2.23-10.66,2.63-2.77.3-5.6.06-8.43-.5,6.37-.71,12.74-1.42,19.11-2.13,0,0-.01,0-.01,0Z"/>
  <path class="cls-8" d="m204.51,146.77c-.35,1.04-1.1,1.25-2.07.99.1-1.57.44-2.62,2.07-.99Z"/>
  <path class="cls-7" d="m52.56,147.89c.02-.39.04-.78.06-1.18,2.28.14,4.55.31,6.69,1.25,1.01.44,1.69,1.1,1.04,2.22-.49.84-1.56.93-2.11.35-1.58-1.67-3.98-1.37-5.68-2.64Z"/>
  <path class="cls-7" d="m232.73,146.43c-.28.17-.53.44-.79.44-.26,0-.53-.26-.79-.4.26-.16.51-.43.77-.43.26,0,.53.25.81.39Z"/>
  <path class="cls-6" d="m72.38,129.8c-.41,3.27-2.53.93-3.86,1.18.96-1.46,2.54-.9,3.86-1.18Z"/>
  <path class="cls-6" d="m49.95,126.9c-1.44.11-2.32-.44-2.36-1.99,1.46-.13,1.88.97,2.36,1.99Z"/>
  <path class="cls-6" d="m47.61,124.95c-1.11-.73-1.07-1.38.12-1.96-.04.65-.08,1.31-.12,1.96Z"/>
</svg>