<svg width="62" height="42" viewBox="0 0 62 42" fill="none" xmlns="http://www.w3.org/2000/svg">
<path fill-rule="evenodd" clip-rule="evenodd" d="M1.97448 41.6644H0V25.0437H1.97448V41.6644ZM2.23767 34.1417L8.69234 27.1504H11.0335L4.57882 34.0858L11.4613 41.6644H9.0215L2.23767 34.1417ZM13.4546 41.6644V27.1224H15.4291V41.6644H13.4546ZM18.8139 41.6644L18.6962 25.1412L20.7635 25.1117L20.6755 29.3968C21.0564 28.8142 21.4042 28.3716 21.7238 28.0732C22.6782 27.2343 23.9804 26.8148 25.621 26.8148C27.7225 26.8148 29.3303 27.5047 30.4397 28.8888C30.8817 29.4343 31.2109 30.0495 31.4316 30.7299C31.6715 31.5317 31.789 32.6223 31.789 34.0065V41.6644H29.7863V34.0111C29.7863 33.3633 29.7392 32.7293 29.6499 32.1002C29.476 31.0283 29.0107 30.1893 28.2585 29.588C27.5015 28.9868 26.5472 28.6885 25.3907 28.6885C24.6198 28.6885 23.8818 28.8562 23.1719 29.1918C22.4901 29.5133 21.9542 29.9423 21.5593 30.4875C21.2585 30.879 21.0515 31.3218 20.9483 31.8113C20.8401 32.3052 20.7884 33.037 20.7884 34.0111V41.6644H18.8139ZM61.4764 27.0361V41.6598H59.5584V38.9238C59.201 39.5344 58.7968 40.047 58.3455 40.4665C57.1419 41.4874 55.6612 42 53.8981 42C52.723 42 51.5288 41.7111 50.3159 41.1331C44.6639 38.4396 44.5191 30.8268 49.9163 27.8402C51.1199 27.155 52.4267 26.8148 53.8417 26.8148C54.7257 26.8148 55.5577 26.95 56.3428 27.225C57.1279 27.4998 57.8049 27.8962 58.3737 28.4134C58.8157 28.7957 59.2105 29.2945 59.5584 29.9048V27.0361H61.4764ZM53.9499 28.6885C52.8452 28.6885 51.8344 28.9448 50.9178 29.4574C49.9963 29.9749 49.2771 30.674 48.7505 31.5548C47.71 33.3111 47.6949 35.5325 48.7645 37.2784C49.2958 38.15 50.0152 38.8399 50.9224 39.3571C51.8297 39.87 52.8076 40.1263 53.8653 40.1263C54.876 40.1263 55.8211 39.87 56.7001 39.3571C57.5746 38.8399 58.2702 38.15 58.7874 37.2784C59.2998 36.4115 59.5584 35.4653 59.5584 34.4493C59.5584 33.4285 59.3045 32.473 58.8014 31.5828C58.2937 30.6879 57.6121 29.9841 56.747 29.4669C55.8822 28.9494 54.9513 28.6885 53.9499 28.6885Z" fill="#101928"/>
<path fill-rule="evenodd" clip-rule="evenodd" d="M41.4048 31.43C41.7911 31.526 41.5856 29.7932 43.625 28.1271C43.6409 29.1491 43.4224 29.0132 42.7514 30.1906C42.3596 30.8778 41.7772 31.3894 41.4975 32.0288C42.9684 31.4789 43.8254 31.0088 44.3899 29.2984C44.6099 28.6325 44.9366 27.5993 44.4446 26.8382C41.1059 27.6882 40.8318 31.2879 41.4048 31.43Z" fill="#95CA20"/>
<path fill-rule="evenodd" clip-rule="evenodd" d="M35.9423 41.2415C36.4525 40.8065 35.9456 40.9206 37.8012 40.9536C38.4235 40.9649 39.0164 40.9359 39.6805 40.8127C39.481 40.8904 36.7076 40.6669 35.7134 40.7983C36.7126 39.2978 40.2245 39.6601 41.1953 40.8722C38.9294 42.1107 38.1599 41.7263 35.9423 41.2415Z" fill="#95CA20"/>
<path fill-rule="evenodd" clip-rule="evenodd" d="M37.9655 36.285C38.3432 36.412 38.2718 34.6679 40.4331 33.172C40.3703 34.1921 40.1629 34.0389 39.4034 35.1583C38.9599 35.8117 38.3399 36.2747 38.0118 36.8895C39.5205 36.4602 40.411 36.0609 41.1055 34.4014C41.3761 33.7554 41.7813 32.7519 41.3495 31.9534C37.9557 32.5307 37.4052 36.097 37.9655 36.285Z" fill="#95CA20"/>
<path fill-rule="evenodd" clip-rule="evenodd" d="M34.2927 41.1313C34.6703 41.2583 34.5989 39.5143 36.7603 38.0183C36.6974 39.0384 36.49 38.8853 35.7305 40.0047C35.2871 40.6581 34.667 41.121 34.339 41.7358C35.8476 41.3065 36.7381 40.9072 37.4326 39.2478C37.7032 38.6017 38.1084 37.5982 37.6766 36.7997C34.2828 37.377 33.7324 40.9433 34.2927 41.1313Z" fill="#95CA20"/>
<path fill-rule="evenodd" clip-rule="evenodd" d="M41.3556 41.2459C41.8066 40.8109 41.3585 40.9249 42.9985 40.958C43.5485 40.9692 44.0726 40.9402 44.6595 40.8171C44.4832 40.8948 42.032 40.6712 41.1533 40.8026C42.0365 39.3021 45.1403 39.6645 45.9983 40.8765C43.9957 42.115 43.3156 41.7307 41.3556 41.2459Z" fill="#95CA20"/>
<path fill-rule="evenodd" clip-rule="evenodd" d="M43.0955 27.2291C42.5944 27.6752 43.0989 27.55 41.243 27.5576C40.6206 27.5599 40.0284 27.6018 39.3671 27.7394C39.5649 27.6574 42.3423 27.8204 43.3335 27.6673C42.3657 29.1893 38.8471 28.9037 37.8513 27.713C40.091 26.4254 40.8683 26.7928 43.0955 27.2291Z" fill="#95CA20"/>
<path fill-rule="evenodd" clip-rule="evenodd" d="M37.5118 28.4116C37.0461 27.9655 37.515 28.0907 35.7899 28.0832C35.2114 28.0808 34.6609 28.0389 34.0461 27.9013C34.23 27.9833 36.8117 27.8204 37.7332 27.9734C36.8335 26.4515 33.5628 26.7371 32.6372 27.9277C34.7191 29.2153 35.4416 28.8479 37.5118 28.4116Z" fill="#95CA20"/>
<path fill-rule="evenodd" clip-rule="evenodd" d="M36.7095 16.3086C37.5285 16.2469 37.3391 15.1232 36.6066 15.1676C35.7393 15.2203 35.8577 16.3726 36.7095 16.3086Z" fill="#95CA20"/>
<path fill-rule="evenodd" clip-rule="evenodd" d="M25.1076 14.3423C24.4576 13.8029 23.6826 14.6942 24.3104 15.2029C24.8669 15.6539 25.7393 14.8666 25.1076 14.3423Z" fill="#95CA20"/>
<path fill-rule="evenodd" clip-rule="evenodd" d="M45.2049 15.6247C45.0402 15.5133 45.0851 15.4517 44.8046 15.4827C44.6446 15.5003 44.4707 15.5785 44.3523 15.7235C44.1813 15.9328 44.1747 16.3052 44.5013 16.5414C45.0662 16.9499 45.9137 16.1039 45.2049 15.6247Z" fill="white"/>
<path fill-rule="evenodd" clip-rule="evenodd" d="M20.8975 9.28426C20.1845 8.76635 19.4726 9.76316 20.1915 10.2107C20.7435 10.5545 21.5545 9.76158 20.8975 9.28426Z" fill="#95CA20"/>
<path fill-rule="evenodd" clip-rule="evenodd" d="M26.5998 5.6908C25.9024 5.25673 25.254 6.14652 25.9016 6.61397C26.5026 7.04778 27.3251 6.14241 26.5998 5.6908Z" fill="white"/>
<path fill-rule="evenodd" clip-rule="evenodd" d="M34.6755 5.6572C34.0549 6.06932 34.7247 7.03555 35.409 6.58816C36.0296 6.18225 35.3623 5.20104 34.6755 5.6572Z" fill="#95CA20"/>
<path fill-rule="evenodd" clip-rule="evenodd" d="M26.6931 7.85722C24.2391 8.356 23.3978 4.94983 25.852 4.4252C28.2459 3.91345 29.1119 7.36567 26.6931 7.85722ZM28.8789 8.31752C30.3346 7.20349 32.3165 7.56744 33.3174 8.73129C34.5335 10.1455 34.0384 11.9803 32.9032 12.8369C31.4471 13.9357 29.5043 13.6299 28.4589 12.451C27.2412 11.0778 27.6807 9.23463 28.8789 8.31752ZM38.0541 14.6054C38.8396 15.395 38.571 16.4851 37.8836 17.0498C37.0087 17.7687 35.8273 17.5522 35.2154 16.9106C33.6257 15.2441 36.2518 12.7937 38.0541 14.6054ZM36.4978 5.02686C37.2392 5.86407 36.9898 6.94669 36.2143 7.51318C35.3388 8.15285 34.1551 7.89673 33.5954 7.24108C32.045 5.42457 34.8793 3.19916 36.4978 5.02686ZM43.362 9.08285C44.5464 10.4142 44.0617 12.3388 42.8778 13.1804C41.3657 14.2554 39.4149 13.892 38.4557 12.7359C35.9076 9.66477 40.6528 6.03783 43.362 9.08285ZM46.2136 14.8317C47.0564 15.5567 46.7713 16.7776 46.1847 17.3163C45.3554 18.0778 44.1861 17.9092 43.5388 17.3289C41.8073 15.777 44.254 13.1463 46.2136 14.8317ZM39.631 5.64944C39.4092 5.86362 37.1783 9.55952 36.8002 10.1592C36.5524 10.5519 36.1289 11.5792 35.4348 11.2325C34.6933 10.8621 35.3393 10.1485 35.6363 9.67166C36.5122 8.26533 37.7079 6.42718 38.4658 5.09457C38.3105 4.83229 37.3553 4.29008 37.0599 4.13518C36.4896 3.8363 36.0574 3.75117 35.462 3.67315C33.8169 3.45777 34.0537 3.6322 32.1955 3.17159C29.6413 2.53829 29.4051 3.31623 26.9487 3.54631C24.8265 3.74517 25.0369 3.61311 23.2987 4.63425C22.5425 5.07848 22.5276 4.7516 23.5071 6.33704L30.5659 17.7579C30.82 17.5382 32.8152 14.2295 33.2457 13.5199C33.4761 13.1402 33.8782 12.1949 34.5641 12.6055C35.2313 13.0048 34.6263 13.658 34.3835 14.0517L31.723 18.3182C31.9785 18.4499 32.2835 18.3899 32.6868 18.3904L35.6763 18.3994C37.0829 18.3956 38.3645 18.4294 39.6138 18.401C40.9147 18.3714 42.1982 18.4111 43.5458 18.4127C44.1538 18.4135 44.8584 18.4125 45.4857 18.416C45.8741 18.4183 47.1388 18.4664 47.4972 18.3813C47.589 18.0471 47.639 17.0877 47.6231 16.6929C47.5743 15.4866 46.6907 14.3972 46.2397 12.9174C45.1781 9.43351 44.8776 10.7633 42.7161 7.8267C42.2789 7.23275 41.877 6.76926 41.283 6.41914C40.8148 6.14329 40.1347 5.82262 39.631 5.64944Z" fill="#101928"/>
<path fill-rule="evenodd" clip-rule="evenodd" d="M16.7259 12.5987C18.1792 11.5631 20.2031 11.9607 21.1324 13.1612C22.2392 14.5912 21.8248 16.3842 20.5266 17.2733C19.0289 18.2991 17.0542 17.9085 16.12 16.7034C15.0102 15.272 15.4369 13.5171 16.7259 12.5987ZM21.9433 8.58875C23.5563 10.2442 20.7809 12.6251 19.1099 10.8913C17.4926 9.21317 20.1632 6.76191 21.9433 8.58875ZM25.9842 13.4742C27.8123 15.0667 25.2231 17.6189 23.4005 16.033C22.5103 15.2584 22.7368 14.1236 23.3387 13.5306C24.1583 12.7231 25.3219 12.8973 25.9842 13.4742ZM13.742 18.3974C14.1032 18.3259 21.1047 18.3719 21.5664 18.3764C22.5247 18.3856 29.144 18.4433 29.4582 18.3471L21.6904 5.7698C21.5091 5.47648 21.3278 5.74358 20.5954 6.05086C19.2959 6.59606 18.913 7.23717 18.1586 8.21628C17.2886 9.34545 16.0056 10.1888 15.4786 11.3073C15.0348 12.2496 15.0551 12.927 14.192 14.7015C13.8875 15.3275 13.6643 15.7706 13.5893 16.4104C13.5492 16.7517 13.5678 18.0227 13.742 18.3974Z" fill="#101928"/>
<path fill-rule="evenodd" clip-rule="evenodd" d="M40.1873 4.72005C40.6038 5.03305 41.3966 5.28152 41.9502 5.61725C43.2597 6.41182 43.8596 7.73479 45.0184 8.85993C46.613 10.4086 46.6921 10.4841 47.3364 12.6004C47.8055 14.141 48.5244 15.3514 48.6335 16.837C48.7116 17.8498 48.7337 18.3117 48.8116 18.4506C48.8374 18.4966 48.9249 18.4795 49.0346 18.4787C49.182 18.4771 49.2228 18.0851 49.4222 17.8491C49.7411 17.4725 50.8993 18.8807 50.8398 17.7256C50.6223 14.9751 49.7407 12.2242 48.1933 9.70796C46.5885 7.09814 44.5964 5.1519 42.0945 3.50577C40.9976 2.78408 40.8868 3.70478 40.1873 4.72005Z" fill="#101928"/>
<path fill-rule="evenodd" clip-rule="evenodd" d="M12.4174 18.3208C11.8288 15.634 13.0939 14.5259 13.7029 12.6708C13.909 12.043 14.0109 11.4904 14.3152 10.8191C14.9135 9.49968 16.255 8.69045 17.137 7.51129C18.9691 5.06195 18.9378 5.71291 20.9351 4.55806C19.8809 2.736 19.916 2.72007 18.487 3.68277C14.6025 6.29969 11.6141 10.65 10.7048 14.8529C10.5168 15.7218 10.3747 16.4259 10.2812 17.3867C10.2317 17.895 10.2318 18.3511 10.9688 18.368C11.3148 18.3759 12.1067 18.4144 12.4174 18.3208Z" fill="#101928"/>
<path fill-rule="evenodd" clip-rule="evenodd" d="M22.0384 2.98897L22.6225 3.97618C24.5679 2.91028 24.1492 2.62232 26.9869 2.39402C28.4376 2.27726 29.8336 1.60884 31.249 1.76943C31.9711 1.85139 32.5284 2.04907 33.1735 2.19933C35.1034 2.64889 36.7222 2.18712 38.8099 4.01131C39.0592 3.7915 39.3158 3.23585 39.4902 2.9512C39.8088 2.43115 39.6813 2.13177 39.1388 1.88029C36.8954 0.840391 34.5143 0.2028 31.9213 0.0377886C28.7721 -0.162719 25.4014 0.435945 22.4576 1.804C21.7975 2.11074 21.6694 2.35992 22.0384 2.98897Z" fill="#101928"/>
<path fill-rule="evenodd" clip-rule="evenodd" d="M39.6564 9.57104C37.8534 11.0354 40.163 13.7171 42.1072 12.2314C42.8176 11.6886 43.0612 10.5686 42.3212 9.74868C41.7292 9.09272 40.5232 8.86693 39.6564 9.57104Z" fill="#101928"/>
<path fill-rule="evenodd" clip-rule="evenodd" d="M20.0262 13.7775C18.318 12.0824 15.6099 14.3288 17.2272 16.0992C17.8324 16.7617 19.0322 16.954 19.9304 16.1977C20.5772 15.6531 20.7688 14.5143 20.0262 13.7775Z" fill="#101928"/>
<path fill-rule="evenodd" clip-rule="evenodd" d="M32.1673 9.33375C30.3072 7.73907 27.8637 10.2469 29.5515 11.8257C30.1777 12.4115 31.3859 12.5981 32.2271 11.8046C32.8416 11.2251 33.0495 10.09 32.1673 9.33375Z" fill="#95CA20"/>
<path fill-rule="evenodd" clip-rule="evenodd" d="M39.6564 9.57104C40.5232 8.86693 41.7293 9.09272 42.3213 9.74868C43.0612 10.5686 42.8177 11.6886 42.1073 12.2314C40.1631 13.7171 37.8534 11.0354 39.6564 9.57104ZM43.3619 9.08284C40.6527 6.03782 35.9075 9.66477 38.4556 12.7359C39.4148 13.892 41.3656 14.2554 42.8777 13.1804C44.0616 12.3388 44.5463 10.4141 43.3619 9.08284Z" fill="white"/>
<path fill-rule="evenodd" clip-rule="evenodd" d="M32.1674 9.33375C33.0496 10.09 32.8417 11.2251 32.2272 11.8046C31.386 12.5981 30.1778 12.4115 29.5516 11.8257C27.8638 10.2469 30.3073 7.73907 32.1674 9.33375ZM28.8789 8.31751C27.6807 9.23463 27.2412 11.0778 28.4589 12.451C29.5043 13.6299 31.4471 13.9357 32.9032 12.8369C34.0384 11.9803 34.5335 10.1455 33.3174 8.73129C32.3165 7.56743 30.3346 7.20348 28.8789 8.31751Z" fill="white"/>
<path fill-rule="evenodd" clip-rule="evenodd" d="M20.0263 13.7775C20.7689 14.5144 20.5773 15.6531 19.9305 16.1977C19.0322 16.954 17.8325 16.7617 17.2273 16.0992C15.61 14.3288 18.3181 12.0824 20.0263 13.7775ZM16.7258 12.5987C15.4368 13.5171 15.0101 15.272 16.1199 16.7034C17.0541 17.9085 19.0288 18.2991 20.5265 17.2733C21.8247 16.3842 22.2391 14.5912 21.1323 13.1612C20.203 11.9607 18.1791 11.5631 16.7258 12.5987Z" fill="#95CA20"/>
<path fill-rule="evenodd" clip-rule="evenodd" d="M26.5998 5.69079C27.3252 6.14239 26.5027 7.04777 25.9017 6.61396C25.254 6.14651 25.9025 5.25672 26.5998 5.69079ZM26.693 7.85721C29.1119 7.36566 28.2459 3.91344 25.852 4.42519C23.3978 4.94982 24.239 8.35599 26.693 7.85721Z" fill="#95CA20"/>
<path fill-rule="evenodd" clip-rule="evenodd" d="M45.2049 15.6247C45.9137 16.1039 45.0662 16.9499 44.5012 16.5414C44.1747 16.3052 44.1813 15.9328 44.3523 15.7235C44.4707 15.5785 44.6446 15.5003 44.8046 15.4826C45.0851 15.4517 45.0402 15.5133 45.2049 15.6247ZM46.2135 14.8317C44.2539 13.1462 41.8072 15.777 43.5386 17.3289C44.186 17.9091 45.3553 18.0778 46.1846 17.3163C46.7712 16.7776 47.0563 15.5567 46.2135 14.8317Z" fill="#95CA20"/>
<path fill-rule="evenodd" clip-rule="evenodd" d="M25.1077 14.3423C25.7395 14.8666 24.8671 15.6538 24.3106 15.2029C23.6828 14.6942 24.4578 13.8029 25.1077 14.3423ZM25.9841 13.4742C25.3218 12.8973 24.1582 12.7231 23.3387 13.5306C22.7368 14.1236 22.5103 15.2584 23.4005 16.033C25.2231 17.6189 27.8123 15.0667 25.9841 13.4742Z" fill="white"/>
<path fill-rule="evenodd" clip-rule="evenodd" d="M20.8976 9.28426C21.5546 9.76159 20.7437 10.5545 20.1916 10.2107C19.4728 9.76316 20.1846 8.76636 20.8976 9.28426ZM21.9433 8.58875C20.1632 6.76191 17.4926 9.21316 19.1099 10.8913C20.7809 12.6251 23.5563 10.2442 21.9433 8.58875Z" fill="white"/>
<path fill-rule="evenodd" clip-rule="evenodd" d="M34.6755 5.65718C35.3622 5.20102 36.0296 6.18224 35.4089 6.58815C34.7246 7.03553 34.0548 6.0693 34.6755 5.65718ZM36.4976 5.02685C34.8791 3.19915 32.0448 5.42456 33.5952 7.24107C34.1549 7.89672 35.3386 8.15284 36.2142 7.51317C36.9897 6.94668 37.239 5.86406 36.4976 5.02685Z" fill="white"/>
<path fill-rule="evenodd" clip-rule="evenodd" d="M36.7094 16.3086C35.8576 16.3726 35.7392 15.2203 36.6065 15.1676C37.339 15.1232 37.5284 16.2469 36.7094 16.3086ZM38.0539 14.6054C36.2516 12.7937 33.6255 15.2441 35.2152 16.9106C35.8272 17.5521 37.0085 17.7687 37.8834 17.0498C38.5708 16.4851 38.8394 15.395 38.0539 14.6054Z" fill="white"/>
</svg>
